<?xml version="1.0" standalone="no"?>
<!DOCTYPE svg PUBLIC "-//W3C//DTD SVG 20010904//EN"
 "http://www.w3.org/TR/2001/REC-SVG-20010904/DTD/svg10.dtd">
<svg version="1.0" xmlns="http://www.w3.org/2000/svg"
 width="400.000000pt" height="400.000000pt" viewBox="0 0 400.000000 400.000000"
 preserveAspectRatio="xMidYMid meet">
<metadata>
Created by potrace 1.11, written by Peter Selinger 2001-2013
</metadata>
<g transform="translate(0.000000,400.000000) scale(0.100000,-0.100000)"
fill="#000000" stroke="none">
<path d="M0 2000 l0 -2000 2000 0 2000 0 0 2000 0 2000 -2000 0 -2000 0 0
-2000z m2380 1524 c112 -19 254 -63 357 -110 73 -33 213 -121 265 -166 l27
-23 -95 -175 c-98 -180 -120 -212 -166 -236 -57 -30 -103 -19 -269 65 -198
100 -258 115 -422 108 -144 -5 -196 -21 -263 -80 -65 -58 -94 -122 -94 -215 0
-172 83 -233 515 -376 467 -156 632 -263 749 -486 64 -120 81 -203 80 -385 -1
-139 -4 -173 -27 -256 -105 -398 -397 -653 -827 -724 -147 -25 -403 -16 -550
18 -266 63 -518 183 -678 324 l-43 38 110 175 c61 96 122 185 136 197 14 12
43 28 64 34 67 20 118 5 252 -76 140 -85 260 -138 348 -156 87 -17 293 -7 351
16 118 48 179 123 200 247 21 120 -5 203 -86 277 -66 60 -143 98 -300 146
-304 93 -406 129 -499 174 -212 102 -332 230 -405 429 -40 109 -54 219 -47
370 6 147 22 212 81 337 134 283 420 475 781 524 96 13 340 5 455 -15z"/>
</g>
</svg>
